<?xml version="1.0" encoding="UTF-8"?>
<svg version="1.1" xmlns="http://www.w3.org/2000/svg" width="512" height="512" viewBox="41 42 429 429">
<rect width="512" height="512" fill="white"/>
<path d="M0 0 C29.38342573 25.18059968 46.47740244 59.77931604 49.60961914 98.24780273 C51.95472304 134.11166438 41.06573117 170.62520584 17.51367188 198.0859375 C13.02626705 203.16471667 8.38463663 208.07481079 3.44580078 212.71826172 C-17.78421364 233.74115405 -27.42311561 262.65773339 -28.36669922 291.90576172 C-28.67552197 299.98633446 -29.9150814 306.48531305 -36.03076172 312.27294922 C-41.18899185 316.34326172 -41.18899185 316.34326172 -43.99169922 316.34326172 C-43.99169922 323.93326172 -43.99169922 331.52326172 -43.99169922 339.34326172 C-37.30474527 339.14617721 -37.30474527 339.14617721 -30.61987305 338.89282227 C-25.97044458 338.82372059 -23.69992915 338.82442163 -19.85107422 341.64404297 C-17.40573295 345.19389763 -17.311764 347.11255367 -17.99169922 351.34326172 C-20.79006205 355.94057208 -20.79006205 355.94057208 -23.86181641 356.9699707 C-26.06352146 357.35584955 -28.08564893 357.45687636 -30.31982422 357.44091797 C-31.11904297 357.43769531 -31.91826172 357.43447266 -32.74169922 357.43115234 C-33.56669922 357.42277344 -34.39169922 357.41439453 -35.24169922 357.40576172 C-36.08216797 357.40125 -36.92263672 357.39673828 -37.78857422 357.39208984 C-39.85631323 357.38034133 -41.92401546 357.36240694 -43.99169922 357.34326172 C-43.97075195 357.90722656 -43.94980469 358.47119141 -43.92822266 359.05224609 C-43.84421421 361.64906421 -43.79277693 364.24559534 -43.74169922 366.84326172 C-43.70818359 367.73013672 -43.67466797 368.61701172 -43.64013672 369.53076172 C-43.53240441 376.8565587 -45.11145737 381.92448726 -49.85107422 387.55029297 C-50.47498047 388.08009766 -51.09888672 388.60990234 -51.74169922 389.15576172 C-52.35529297 389.69845703 -52.96888672 390.24115234 -53.60107422 390.80029297 C-60.91714839 395.52226895 -67.75471074 395.79931038 -76.23388672 395.77685547 C-77.39743683 395.78209732 -78.56098694 395.78733917 -79.75979614 395.79273987 C-82.21225184 395.79914108 -84.66473832 395.79784783 -87.1171875 395.78930664 C-90.84805595 395.78080421 -94.57738823 395.8095756 -98.30810547 395.84130859 C-100.7000321 395.84292112 -103.09196141 395.84234209 -105.48388672 395.83935547 C-106.58836151 395.85058945 -107.6928363 395.86182343 -108.83078003 395.87339783 C-118.72990295 395.78533777 -126.47089656 393.56953075 -133.51904297 386.41748047 C-138.07288599 380.00344693 -138.39399816 374.55590854 -138.17919922 366.90576172 C-138.16566406 365.9834375 -138.15212891 365.06111328 -138.13818359 364.11083984 C-138.10310874 361.85435789 -138.05396308 359.59912946 -137.99169922 357.34326172 C-139.23306641 357.36646484 -140.47443359 357.38966797 -141.75341797 357.41357422 C-143.39533902 357.43233903 -145.0372666 357.45053847 -146.67919922 357.46826172 C-147.49582031 357.48501953 -148.31244141 357.50177734 -149.15380859 357.51904297 C-154.45783873 357.56199058 -158.73190423 357.44720878 -162.80419922 353.65576172 C-164.52731951 350.30021169 -164.51378011 348.06308807 -163.99169922 344.34326172 C-162.13623047 341.64013672 -162.13623047 341.64013672 -158.99169922 339.34326172 C-155.36186081 338.7350608 -151.84632823 338.87190809 -148.17919922 339.03076172 C-144.81732422 339.13388672 -141.45544922 339.23701172 -137.99169922 339.34326172 C-137.99169922 331.75326172 -137.99169922 324.16326172 -137.99169922 316.34326172 C-139.64169922 315.68326172 -141.29169922 315.02326172 -142.99169922 314.34326172 C-148.44592759 311.07072469 -150.84142736 306.15389802 -152.99169922 300.34326172 C-153.73574923 295.99571599 -153.90571103 291.68424766 -154.05419922 287.28076172 C-155.82678057 255.03375225 -167.9395278 229.90317621 -190.92919922 207.53076172 C-216.8516321 182.18942219 -231.25646805 147.25579918 -232.04052734 111.09106445 C-232.38016218 71.35764837 -217.49434006 35.85280711 -189.99169922 7.34326172 C-138.44020259 -43.00794955 -55.3181276 -46.01480925 0 0 Z " fill="#F6D207" transform="translate(346.99169921875,74.65673828125)"/>
<path d="M0 0 C29.38342573 25.18059968 46.47740244 59.77931604 49.60961914 98.24780273 C51.95472304 134.11166438 41.06573117 170.62520584 17.51367188 198.0859375 C13.02626705 203.16471667 8.38463663 208.07481079 3.44580078 212.71826172 C-17.78421364 233.74115405 -27.42311561 262.65773339 -28.36669922 291.90576172 C-28.67552197 299.98633446 -29.9150814 306.48531305 -36.03076172 312.27294922 C-41.18899185 316.34326172 -41.18899185 316.34326172 -43.99169922 316.34326172 C-43.99169922 323.93326172 -43.99169922 331.52326172 -43.99169922 339.34326172 C-37.30474527 339.14617721 -37.30474527 339.14617721 -30.61987305 338.89282227 C-25.97044458 338.82372059 -23.69992915 338.82442163 -19.85107422 341.64404297 C-17.40573295 345.19389763 -17.311764 347.11255367 -17.99169922 351.34326172 C-20.79006205 355.94057208 -20.79006205 355.94057208 -23.86181641 356.9699707 C-26.06352146 357.35584955 -28.08564893 357.45687636 -30.31982422 357.44091797 C-31.11904297 357.43769531 -31.91826172 357.43447266 -32.74169922 357.43115234 C-33.56669922 357.42277344 -34.39169922 357.41439453 -35.24169922 357.40576172 C-36.08216797 357.40125 -36.92263672 357.39673828 -37.78857422 357.39208984 C-39.85631323 357.38034133 -41.92401546 357.36240694 -43.99169922 357.34326172 C-43.97075195 357.90722656 -43.94980469 358.47119141 -43.92822266 359.05224609 C-43.84421421 361.64906421 -43.79277693 364.24559534 -43.74169922 366.84326172 C-43.70818359 367.73013672 -43.67466797 368.61701172 -43.64013672 369.53076172 C-43.53240441 376.8565587 -45.11145737 381.92448726 -49.85107422 387.55029297 C-50.47498047 388.08009766 -51.09888672 388.60990234 -51.74169922 389.15576172 C-52.35529297 389.69845703 -52.96888672 390.24115234 -53.60107422 390.80029297 C-60.91714839 395.52226895 -67.75471074 395.79931038 -76.23388672 395.77685547 C-77.39743683 395.78209732 -78.56098694 395.78733917 -79.75979614 395.79273987 C-82.21225184 395.79914108 -84.66473832 395.79784783 -87.1171875 395.78930664 C-90.84805595 395.78080421 -94.57738823 395.8095756 -98.30810547 395.84130859 C-100.7000321 395.84292112 -103.09196141 395.84234209 -105.48388672 395.83935547 C-106.58836151 395.85058945 -107.6928363 395.86182343 -108.83078003 395.87339783 C-118.72990295 395.78533777 -126.47089656 393.56953075 -133.51904297 386.41748047 C-138.07288599 380.00344693 -138.39399816 374.55590854 -138.17919922 366.90576172 C-138.16566406 365.9834375 -138.15212891 365.06111328 -138.13818359 364.11083984 C-138.10310874 361.85435789 -138.05396308 359.59912946 -137.99169922 357.34326172 C-139.23306641 357.36646484 -140.47443359 357.38966797 -141.75341797 357.41357422 C-143.39533902 357.43233903 -145.0372666 357.45053847 -146.67919922 357.46826172 C-147.49582031 357.48501953 -148.31244141 357.50177734 -149.15380859 357.51904297 C-154.45783873 357.56199058 -158.73190423 357.44720878 -162.80419922 353.65576172 C-164.52731951 350.30021169 -164.51378011 348.06308807 -163.99169922 344.34326172 C-162.13623047 341.64013672 -162.13623047 341.64013672 -158.99169922 339.34326172 C-155.36186081 338.7350608 -151.84632823 338.87190809 -148.17919922 339.03076172 C-144.81732422 339.13388672 -141.45544922 339.23701172 -137.99169922 339.34326172 C-137.99169922 331.75326172 -137.99169922 324.16326172 -137.99169922 316.34326172 C-139.64169922 315.68326172 -141.29169922 315.02326172 -142.99169922 314.34326172 C-148.44592759 311.07072469 -150.84142736 306.15389802 -152.99169922 300.34326172 C-153.73574923 295.99571599 -153.90571103 291.68424766 -154.05419922 287.28076172 C-155.82678057 255.03375225 -167.9395278 229.90317621 -190.92919922 207.53076172 C-216.8516321 182.18942219 -231.25646805 147.25579918 -232.04052734 111.09106445 C-232.38016218 71.35764837 -217.49434006 35.85280711 -189.99169922 7.34326172 C-138.44020259 -43.00794955 -55.3181276 -46.01480925 0 0 Z M-171.99169922 15.34326172 C-172.72646484 15.93236328 -173.46123047 16.52146484 -174.21826172 17.12841797 C-192.72617044 32.52987558 -205.48794032 56.15612932 -210.99169922 79.34326172 C-211.44029297 81.10283203 -211.44029297 81.10283203 -211.89794922 82.89794922 C-218.83329174 113.78590991 -212.40465908 146.18308971 -196.15576172 173.06591797 C-189.84449293 182.6239586 -182.68872143 190.78744822 -174.49169922 198.78076172 C-162.49137332 210.5250877 -153.72311762 222.95984715 -146.99169922 238.34326172 C-146.70955566 238.98344238 -146.42741211 239.62362305 -146.13671875 240.28320312 C-139.38131478 255.96354269 -136.54255809 272.15268092 -136.40649414 289.18554688 C-136.39207275 290.06259277 -136.37765137 290.93963867 -136.36279297 291.84326172 C-136.36206787 292.61669922 -136.36134277 293.39013672 -136.3605957 294.18701172 C-135.8615846 297.10379934 -135.12720832 298.27004618 -132.99169922 300.34326172 C-130.34464794 300.69996065 -128.11934246 300.81102969 -125.47998047 300.73388672 C-124.75175583 300.72822693 -124.02353119 300.72256714 -123.27323914 300.71673584 C-120.94955423 300.694362 -118.62741715 300.64416841 -116.30419922 300.59326172 C-114.72804963 300.57319781 -113.15187585 300.55494684 -111.57568359 300.53857422 C-107.71375998 300.49449455 -103.85299192 300.42546397 -99.99169922 300.34326172 C-98.72384441 283.8992081 -97.85559457 267.45426183 -97.36669922 250.96826172 C-97.33104103 249.76853855 -97.29538284 248.56881538 -97.2586441 247.33273697 C-95.50698863 209.53269535 -95.50698863 209.53269535 -112.04702759 177.04632568 C-120.21993269 168.56556886 -129.96414056 161.44992103 -140.15670776 155.59867859 C-141.99169922 154.34326172 -141.99169922 154.34326172 -143.99169922 151.34326172 C-144.53338963 147.85393128 -144.58482707 144.52951743 -142.99169922 141.34326172 C-139.78531256 139.74006839 -136.50751634 139.97466799 -132.99169922 140.34326172 C-132.00169922 140.67326172 -131.01169922 141.00326172 -129.99169922 141.34326172 C-129.66169922 142.33326172 -129.33169922 143.32326172 -128.99169922 144.34326172 C-128.33169922 144.34326172 -127.67169922 144.34326172 -126.99169922 144.34326172 C-126.99169922 145.00326172 -126.99169922 145.66326172 -126.99169922 146.34326172 C-125.65836589 148.00992839 -125.65836589 148.00992839 -123.99169922 149.34326172 C-123.33169922 149.34326172 -122.67169922 149.34326172 -121.99169922 149.34326172 C-121.66169922 150.33326172 -121.33169922 151.32326172 -120.99169922 152.34326172 C-119.50202175 153.85581538 -119.50202175 153.85581538 -117.61669922 155.34716797 C-112.1067341 160.022029 -107.07444603 165.1518398 -101.99169922 170.28076172 C-101.01667536 171.26081482 -100.04141642 172.24063412 -99.06591797 173.22021484 C-96.70553304 175.59228485 -94.34753017 177.96667032 -91.99169922 180.34326172 C-88.78055164 178.93097923 -86.65834306 177.24560395 -84.20458984 174.75146484 C-83.47703491 174.01730347 -82.74947998 173.28314209 -81.99987793 172.5267334 C-80.83567322 171.33763367 -80.83567322 171.33763367 -79.64794922 170.12451172 C-78.84184204 169.3108313 -78.03573486 168.49715088 -77.2052002 167.65881348 C-74.62918946 165.05836548 -72.05969919 162.45161941 -69.49169922 159.84326172 C-66.11200912 156.41045768 -62.72583468 152.98424928 -59.33544922 149.56201172 C-58.17124451 148.37291199 -58.17124451 148.37291199 -56.98352051 147.15979004 C-56.25596558 146.42562866 -55.52841064 145.69146729 -54.77880859 144.93505859 C-54.14245483 144.2882312 -53.50610107 143.64140381 -52.85046387 142.97497559 C-49.83898222 140.33135076 -47.96949215 139.28339685 -43.92919922 139.53076172 C-39.49292571 140.75781609 -39.49292571 140.75781609 -37.99169922 143.34326172 C-37.07192322 148.29098838 -37.07192322 148.29098838 -37.99169922 151.34326172 C-40.88864184 154.21067152 -44.3830788 156.13913146 -47.83544922 158.27685547 C-63.56643017 169.31754827 -80.53486912 182.28530969 -84.27984619 202.25183105 C-86.67576742 218.58302836 -86.32806803 235.20335363 -85.80419922 251.65576172 C-85.76567841 252.87334545 -85.72715759 254.09092918 -85.68746948 255.34540939 C-85.16599284 270.7063189 -84.25093223 286.02592476 -82.99169922 301.34326172 C-78.52605621 301.46723319 -74.06133483 301.55777163 -69.59448242 301.61791992 C-68.07640121 301.64300281 -66.55844004 301.67707832 -65.04077148 301.72045898 C-62.85353956 301.78139465 -60.66790883 301.80953067 -58.47998047 301.83154297 C-57.16553955 301.85772705 -55.85109863 301.88391113 -54.49682617 301.91088867 C-50.13289712 301.20418567 -48.70274458 299.75478981 -45.99169922 296.34326172 C-45.30937526 294.23606426 -45.30937526 294.23606426 -45.46044922 292.06982422 C-45.45762939 291.25658691 -45.45480957 290.44334961 -45.4519043 289.60546875 C-45.46503662 288.73519043 -45.47816895 287.86491211 -45.49169922 286.96826172 C-44.84436477 249.63316524 -27.20645536 219.49189771 -1.99169922 193.34326172 C18.18143132 172.39543339 30.32986899 145.4420314 32.00830078 116.34326172 C32.05889648 115.47427246 32.10949219 114.6052832 32.16162109 113.70996094 C33.66489765 82.95768126 23.81256438 53.04935871 4.00830078 29.34326172 C3.18845703 28.35970703 2.36861328 27.37615234 1.52392578 26.36279297 C-17.62297105 4.13441433 -46.38903595 -11.98758118 -75.85595703 -14.44726562 C-112.78150104 -16.91395176 -143.60964433 -8.72820804 -171.99169922 15.34326172 Z " fill="#010100" transform="translate(346.99169921875,74.65673828125)"/>
<path d="M0 0 C19.8 0 39.6 0 60 0 C60.0825 8.806875 60.165 17.61375 60.25 26.6875 C60.28641602 29.46115967 60.32283203 32.23481934 60.36035156 35.0925293 C60.37203569 37.29475124 60.38222817 39.49698182 60.390625 41.69921875 C60.41108887 42.83959595 60.43155273 43.97997314 60.45263672 45.15490723 C60.4545914 49.58567591 60.36383534 53.09527101 58.70214844 57.22729492 C54.22516889 60.16435206 49.6099978 59.71204489 44.375 59.6640625 C43.23595215 59.66884613 42.0969043 59.67362976 40.92333984 59.67855835 C38.51593647 59.68195969 36.10848705 59.67274115 33.70117188 59.65185547 C30.01327665 59.62509633 26.32842539 59.65159869 22.640625 59.68359375 C20.30207661 59.6802897 17.96353011 59.67388357 15.625 59.6640625 C14.52075684 59.67418365 13.41651367 59.68430481 12.27880859 59.69473267 C4.88619906 59.58137797 4.88619906 59.58137797 1.29785156 57.22729492 C-0.76112351 52.10735673 -0.48867255 47.16305383 -0.390625 41.69921875 C-0.38659668 40.64271118 -0.38256836 39.58620361 -0.37841797 38.49768066 C-0.35753029 34.56077647 -0.30168479 30.62412033 -0.25 26.6875 C-0.1675 17.880625 -0.085 9.07375 0 0 Z " fill="#544F55" transform="translate(226,393)"/>
</svg>
